<mxfile host="Electron" modified="2023-07-31T13:17:57.748Z" agent="Mozilla/5.0 (Windows NT 10.0; Win64; x64) AppleWebKit/537.36 (KHTML, like Gecko) draw.io/21.3.7 Chrome/112.0.5615.204 Electron/24.5.0 Safari/537.36" etag="z8en_r9EVZRPqof3FZer" version="21.3.7" type="device">
  <diagram id="R2lEEEUBdFMjLlhIrx00" name="Page-1">
    <mxGraphModel dx="2084" dy="726" grid="1" gridSize="10" guides="1" tooltips="1" connect="1" arrows="1" fold="1" page="1" pageScale="1" pageWidth="850" pageHeight="1100" math="0" shadow="0" extFonts="Permanent Marker^https://fonts.googleapis.com/css?family=Permanent+Marker">
      <root>
        <mxCell id="0" />
        <mxCell id="1" parent="0" />
        <mxCell id="jcvrlkCG0VKkITgSI-su-2" value="&lt;b&gt;Department&amp;nbsp;&lt;/b&gt;" style="whiteSpace=wrap;html=1;align=center;" parent="1" vertex="1">
          <mxGeometry x="100" y="170" width="100" height="40" as="geometry" />
        </mxCell>
        <mxCell id="jcvrlkCG0VKkITgSI-su-3" value="&lt;b&gt;Employee&lt;/b&gt;" style="whiteSpace=wrap;html=1;align=center;" parent="1" vertex="1">
          <mxGeometry x="530" y="170" width="100" height="40" as="geometry" />
        </mxCell>
        <mxCell id="jcvrlkCG0VKkITgSI-su-4" value="&lt;b&gt;D_no&lt;/b&gt;" style="ellipse;whiteSpace=wrap;html=1;align=center;fontStyle=4;" parent="1" vertex="1">
          <mxGeometry y="100" width="100" height="40" as="geometry" />
        </mxCell>
        <mxCell id="jcvrlkCG0VKkITgSI-su-6" value="&lt;b&gt;Name&lt;/b&gt;" style="ellipse;whiteSpace=wrap;html=1;align=center;" parent="1" vertex="1">
          <mxGeometry x="-13" y="240" width="100" height="40" as="geometry" />
        </mxCell>
        <mxCell id="jcvrlkCG0VKkITgSI-su-8" value="" style="endArrow=none;html=1;rounded=0;exitX=1;exitY=0;exitDx=0;exitDy=0;entryX=0.25;entryY=1;entryDx=0;entryDy=0;" parent="1" source="jcvrlkCG0VKkITgSI-su-6" target="jcvrlkCG0VKkITgSI-su-2" edge="1">
          <mxGeometry width="50" height="50" relative="1" as="geometry">
            <mxPoint x="100" y="240" as="sourcePoint" />
            <mxPoint x="150" y="190" as="targetPoint" />
          </mxGeometry>
        </mxCell>
        <mxCell id="jcvrlkCG0VKkITgSI-su-9" value="" style="endArrow=none;html=1;rounded=0;exitX=1;exitY=1;exitDx=0;exitDy=0;entryX=0.25;entryY=0;entryDx=0;entryDy=0;" parent="1" source="jcvrlkCG0VKkITgSI-su-4" target="jcvrlkCG0VKkITgSI-su-2" edge="1">
          <mxGeometry width="50" height="50" relative="1" as="geometry">
            <mxPoint x="95" y="166" as="sourcePoint" />
            <mxPoint x="135" y="130" as="targetPoint" />
          </mxGeometry>
        </mxCell>
        <mxCell id="jcvrlkCG0VKkITgSI-su-10" value="&lt;b&gt;Manages&lt;/b&gt;" style="shape=rhombus;perimeter=rhombusPerimeter;whiteSpace=wrap;html=1;align=center;" parent="1" vertex="1">
          <mxGeometry x="310" y="160" width="120" height="60" as="geometry" />
        </mxCell>
        <mxCell id="jcvrlkCG0VKkITgSI-su-11" value="" style="endArrow=none;html=1;rounded=0;exitX=1;exitY=0.5;exitDx=0;exitDy=0;entryX=0;entryY=0.5;entryDx=0;entryDy=0;" parent="1" source="jcvrlkCG0VKkITgSI-su-2" target="jcvrlkCG0VKkITgSI-su-10" edge="1">
          <mxGeometry width="50" height="50" relative="1" as="geometry">
            <mxPoint x="240" y="170" as="sourcePoint" />
            <mxPoint x="280" y="206" as="targetPoint" />
          </mxGeometry>
        </mxCell>
        <mxCell id="jcvrlkCG0VKkITgSI-su-12" value="" style="endArrow=none;html=1;rounded=0;exitX=1;exitY=0.5;exitDx=0;exitDy=0;" parent="1" source="jcvrlkCG0VKkITgSI-su-10" edge="1">
          <mxGeometry width="50" height="50" relative="1" as="geometry">
            <mxPoint x="440" y="189.5" as="sourcePoint" />
            <mxPoint x="530" y="190" as="targetPoint" />
          </mxGeometry>
        </mxCell>
        <mxCell id="jcvrlkCG0VKkITgSI-su-13" value="&lt;b&gt;1&lt;/b&gt;" style="text;strokeColor=none;fillColor=none;spacingLeft=4;spacingRight=4;overflow=hidden;rotatable=0;points=[[0,0.5],[1,0.5]];portConstraint=eastwest;fontSize=12;whiteSpace=wrap;html=1;" parent="1" vertex="1">
          <mxGeometry x="210" y="170" width="40" height="30" as="geometry" />
        </mxCell>
        <mxCell id="jcvrlkCG0VKkITgSI-su-14" value="M" style="text;strokeColor=none;fillColor=none;spacingLeft=4;spacingRight=4;overflow=hidden;rotatable=0;points=[[0,0.5],[1,0.5]];portConstraint=eastwest;fontSize=12;whiteSpace=wrap;html=1;fontStyle=1" parent="1" vertex="1">
          <mxGeometry x="490" y="170" width="40" height="30" as="geometry" />
        </mxCell>
        <mxCell id="jcvrlkCG0VKkITgSI-su-15" value="&lt;b&gt; social security number&lt;/b&gt;" style="ellipse;whiteSpace=wrap;html=1;align=center;fontStyle=4;" parent="1" vertex="1">
          <mxGeometry x="525" y="40" width="110" height="50" as="geometry" />
        </mxCell>
        <mxCell id="jcvrlkCG0VKkITgSI-su-16" value="&lt;b&gt;SEX&lt;/b&gt;" style="ellipse;whiteSpace=wrap;html=1;align=center;" parent="1" vertex="1">
          <mxGeometry x="460" y="230" width="70" height="40" as="geometry" />
        </mxCell>
        <mxCell id="jcvrlkCG0VKkITgSI-su-18" value="&lt;b&gt;Address&lt;/b&gt;" style="ellipse;whiteSpace=wrap;html=1;align=center;" parent="1" vertex="1">
          <mxGeometry x="635" y="110" width="100" height="40" as="geometry" />
        </mxCell>
        <mxCell id="jcvrlkCG0VKkITgSI-su-19" value="" style="endArrow=none;html=1;rounded=0;exitX=0.727;exitY=0.942;exitDx=0;exitDy=0;entryX=0.25;entryY=0;entryDx=0;entryDy=0;exitPerimeter=0;" parent="1" source="Aweqttg76wSioMnTIn_R-2" target="jcvrlkCG0VKkITgSI-su-3" edge="1">
          <mxGeometry width="50" height="50" relative="1" as="geometry">
            <mxPoint x="520" y="139" as="sourcePoint" />
            <mxPoint x="580" y="176" as="targetPoint" />
          </mxGeometry>
        </mxCell>
        <mxCell id="jcvrlkCG0VKkITgSI-su-20" value="" style="endArrow=none;html=1;rounded=0;entryX=0.75;entryY=0;entryDx=0;entryDy=0;exitX=0;exitY=1;exitDx=0;exitDy=0;" parent="1" source="jcvrlkCG0VKkITgSI-su-18" target="jcvrlkCG0VKkITgSI-su-3" edge="1">
          <mxGeometry width="50" height="50" relative="1" as="geometry">
            <mxPoint x="570" y="140" as="sourcePoint" />
            <mxPoint x="565" y="180" as="targetPoint" />
          </mxGeometry>
        </mxCell>
        <mxCell id="jcvrlkCG0VKkITgSI-su-21" value="" style="endArrow=none;html=1;rounded=0;entryX=0.5;entryY=0;entryDx=0;entryDy=0;exitX=0.5;exitY=1;exitDx=0;exitDy=0;" parent="1" source="jcvrlkCG0VKkITgSI-su-15" target="jcvrlkCG0VKkITgSI-su-3" edge="1">
          <mxGeometry width="50" height="50" relative="1" as="geometry">
            <mxPoint x="595" y="124" as="sourcePoint" />
            <mxPoint x="565" y="160" as="targetPoint" />
          </mxGeometry>
        </mxCell>
        <mxCell id="jcvrlkCG0VKkITgSI-su-23" value="" style="endArrow=none;html=1;rounded=0;exitX=0.25;exitY=1;exitDx=0;exitDy=0;entryX=1;entryY=0;entryDx=0;entryDy=0;" parent="1" source="jcvrlkCG0VKkITgSI-su-3" target="jcvrlkCG0VKkITgSI-su-16" edge="1">
          <mxGeometry width="50" height="50" relative="1" as="geometry">
            <mxPoint x="530" y="149" as="sourcePoint" />
            <mxPoint x="565" y="180" as="targetPoint" />
          </mxGeometry>
        </mxCell>
        <mxCell id="jcvrlkCG0VKkITgSI-su-25" value="&lt;b&gt;Have&lt;/b&gt;" style="shape=rhombus;perimeter=rhombusPerimeter;whiteSpace=wrap;html=1;align=center;" parent="1" vertex="1">
          <mxGeometry x="790" y="160" width="120" height="60" as="geometry" />
        </mxCell>
        <mxCell id="jcvrlkCG0VKkITgSI-su-27" value="&lt;b&gt;Dependent&amp;nbsp;&lt;/b&gt;" style="shape=ext;margin=3;double=1;whiteSpace=wrap;html=1;align=center;" parent="1" vertex="1">
          <mxGeometry x="1050" y="165" width="100" height="40" as="geometry" />
        </mxCell>
        <mxCell id="jcvrlkCG0VKkITgSI-su-28" value="&lt;b&gt;Name&lt;/b&gt;" style="ellipse;whiteSpace=wrap;html=1;align=center;" parent="1" vertex="1">
          <mxGeometry x="970" y="80" width="100" height="40" as="geometry" />
        </mxCell>
        <mxCell id="jcvrlkCG0VKkITgSI-su-29" value="&lt;b&gt;SEX&lt;/b&gt;" style="ellipse;whiteSpace=wrap;html=1;align=center;" parent="1" vertex="1">
          <mxGeometry x="1080" y="60" width="70" height="40" as="geometry" />
        </mxCell>
        <mxCell id="jcvrlkCG0VKkITgSI-su-31" value="&lt;b&gt;relationship to employee&lt;br&gt;&lt;/b&gt;" style="ellipse;whiteSpace=wrap;html=1;align=center;" parent="1" vertex="1">
          <mxGeometry x="1160" y="80" width="110" height="50" as="geometry" />
        </mxCell>
        <mxCell id="jcvrlkCG0VKkITgSI-su-34" value="" style="endArrow=none;html=1;rounded=0;entryX=0.25;entryY=0;entryDx=0;entryDy=0;exitX=0.5;exitY=1;exitDx=0;exitDy=0;" parent="1" source="jcvrlkCG0VKkITgSI-su-28" target="jcvrlkCG0VKkITgSI-su-27" edge="1">
          <mxGeometry width="50" height="50" relative="1" as="geometry">
            <mxPoint x="1080" y="129" as="sourcePoint" />
            <mxPoint x="1050" y="165" as="targetPoint" />
          </mxGeometry>
        </mxCell>
        <mxCell id="jcvrlkCG0VKkITgSI-su-35" value="" style="endArrow=none;html=1;rounded=0;entryX=0.5;entryY=0;entryDx=0;entryDy=0;exitX=0.5;exitY=1;exitDx=0;exitDy=0;" parent="1" source="jcvrlkCG0VKkITgSI-su-29" target="jcvrlkCG0VKkITgSI-su-27" edge="1">
          <mxGeometry width="50" height="50" relative="1" as="geometry">
            <mxPoint x="1030" y="130" as="sourcePoint" />
            <mxPoint x="1085" y="175" as="targetPoint" />
          </mxGeometry>
        </mxCell>
        <mxCell id="jcvrlkCG0VKkITgSI-su-36" value="" style="endArrow=none;html=1;rounded=0;entryX=0.79;entryY=-0.014;entryDx=0;entryDy=0;exitX=0;exitY=1;exitDx=0;exitDy=0;entryPerimeter=0;" parent="1" source="jcvrlkCG0VKkITgSI-su-31" target="jcvrlkCG0VKkITgSI-su-27" edge="1">
          <mxGeometry width="50" height="50" relative="1" as="geometry">
            <mxPoint x="1125" y="110" as="sourcePoint" />
            <mxPoint x="1110" y="175" as="targetPoint" />
          </mxGeometry>
        </mxCell>
        <mxCell id="jcvrlkCG0VKkITgSI-su-37" value="" style="endArrow=none;html=1;rounded=0;entryX=1;entryY=0.5;entryDx=0;entryDy=0;exitX=0;exitY=0.5;exitDx=0;exitDy=0;" parent="1" source="Aweqttg76wSioMnTIn_R-3" target="jcvrlkCG0VKkITgSI-su-27" edge="1">
          <mxGeometry width="50" height="50" relative="1" as="geometry">
            <mxPoint x="1200.0000000000118" y="175" as="sourcePoint" />
            <mxPoint x="1139" y="174" as="targetPoint" />
          </mxGeometry>
        </mxCell>
        <mxCell id="jcvrlkCG0VKkITgSI-su-38" value="" style="endArrow=none;html=1;rounded=0;exitX=1;exitY=0.5;exitDx=0;exitDy=0;entryX=0;entryY=0.5;entryDx=0;entryDy=0;" parent="1" source="jcvrlkCG0VKkITgSI-su-3" target="jcvrlkCG0VKkITgSI-su-25" edge="1">
          <mxGeometry relative="1" as="geometry">
            <mxPoint x="640" y="190" as="sourcePoint" />
            <mxPoint x="770" y="190" as="targetPoint" />
          </mxGeometry>
        </mxCell>
        <mxCell id="jcvrlkCG0VKkITgSI-su-39" value="" style="endArrow=none;html=1;rounded=0;exitX=1;exitY=0.5;exitDx=0;exitDy=0;entryX=-0.013;entryY=0.624;entryDx=0;entryDy=0;entryPerimeter=0;" parent="1" source="jcvrlkCG0VKkITgSI-su-25" target="jcvrlkCG0VKkITgSI-su-27" edge="1">
          <mxGeometry relative="1" as="geometry">
            <mxPoint x="920" y="189.77" as="sourcePoint" />
            <mxPoint x="1040" y="190" as="targetPoint" />
          </mxGeometry>
        </mxCell>
        <mxCell id="jcvrlkCG0VKkITgSI-su-40" value="M" style="text;strokeColor=none;fillColor=none;spacingLeft=4;spacingRight=4;overflow=hidden;rotatable=0;points=[[0,0.5],[1,0.5]];portConstraint=eastwest;fontSize=12;whiteSpace=wrap;html=1;fontStyle=1" parent="1" vertex="1">
          <mxGeometry x="635" y="165" width="40" height="30" as="geometry" />
        </mxCell>
        <mxCell id="jcvrlkCG0VKkITgSI-su-41" value="M" style="text;strokeColor=none;fillColor=none;spacingLeft=4;spacingRight=4;overflow=hidden;rotatable=0;points=[[0,0.5],[1,0.5]];portConstraint=eastwest;fontSize=12;whiteSpace=wrap;html=1;fontStyle=1" parent="1" vertex="1">
          <mxGeometry x="1010" y="165" width="40" height="30" as="geometry" />
        </mxCell>
        <mxCell id="jcvrlkCG0VKkITgSI-su-42" value="&lt;b&gt;Supervice&lt;/b&gt;" style="shape=rhombus;perimeter=rhombusPerimeter;whiteSpace=wrap;html=1;align=center;rotation=-30;" parent="1" vertex="1">
          <mxGeometry x="690" y="310" width="120" height="60" as="geometry" />
        </mxCell>
        <mxCell id="jcvrlkCG0VKkITgSI-su-43" value="" style="endArrow=none;html=1;rounded=0;exitX=1;exitY=1;exitDx=0;exitDy=0;entryX=0;entryY=0.5;entryDx=0;entryDy=0;" parent="1" source="jcvrlkCG0VKkITgSI-su-3" target="jcvrlkCG0VKkITgSI-su-42" edge="1">
          <mxGeometry relative="1" as="geometry">
            <mxPoint x="700" y="280" as="sourcePoint" />
            <mxPoint x="860" y="280" as="targetPoint" />
          </mxGeometry>
        </mxCell>
        <mxCell id="jcvrlkCG0VKkITgSI-su-44" value="" style="endArrow=none;html=1;rounded=0;entryX=1;entryY=0.5;entryDx=0;entryDy=0;exitX=1;exitY=1;exitDx=0;exitDy=0;" parent="1" source="jcvrlkCG0VKkITgSI-su-3" target="jcvrlkCG0VKkITgSI-su-42" edge="1">
          <mxGeometry relative="1" as="geometry">
            <mxPoint x="660" y="210" as="sourcePoint" />
            <mxPoint x="760" y="360" as="targetPoint" />
          </mxGeometry>
        </mxCell>
        <mxCell id="jcvrlkCG0VKkITgSI-su-45" value="&lt;b&gt;1&lt;/b&gt;" style="text;strokeColor=none;fillColor=none;spacingLeft=4;spacingRight=4;overflow=hidden;rotatable=0;points=[[0,0.5],[1,0.5]];portConstraint=eastwest;fontSize=12;whiteSpace=wrap;html=1;" parent="1" vertex="1">
          <mxGeometry x="650" y="200" width="40" height="30" as="geometry" />
        </mxCell>
        <mxCell id="jcvrlkCG0VKkITgSI-su-46" value="M" style="text;strokeColor=none;fillColor=none;spacingLeft=4;spacingRight=4;overflow=hidden;rotatable=0;points=[[0,0.5],[1,0.5]];portConstraint=eastwest;fontSize=12;whiteSpace=wrap;html=1;fontStyle=1" parent="1" vertex="1">
          <mxGeometry x="670" y="350" width="40" height="30" as="geometry" />
        </mxCell>
        <mxCell id="jcvrlkCG0VKkITgSI-su-48" value="&lt;b&gt;Project&lt;/b&gt;" style="whiteSpace=wrap;html=1;align=center;" parent="1" vertex="1">
          <mxGeometry x="187" y="460" width="100" height="40" as="geometry" />
        </mxCell>
        <mxCell id="jcvrlkCG0VKkITgSI-su-49" value="&lt;b&gt;P_Number&lt;/b&gt;" style="ellipse;whiteSpace=wrap;html=1;align=center;fontStyle=4;" parent="1" vertex="1">
          <mxGeometry x="187" y="560" width="100" height="40" as="geometry" />
        </mxCell>
        <mxCell id="jcvrlkCG0VKkITgSI-su-50" value="&lt;b&gt;Name&lt;/b&gt;" style="ellipse;whiteSpace=wrap;html=1;align=center;" parent="1" vertex="1">
          <mxGeometry x="287" y="520" width="100" height="40" as="geometry" />
        </mxCell>
        <mxCell id="jcvrlkCG0VKkITgSI-su-51" value="&lt;b&gt;Location&lt;/b&gt;" style="ellipse;whiteSpace=wrap;html=1;align=center;" parent="1" vertex="1">
          <mxGeometry x="87" y="520" width="100" height="40" as="geometry" />
        </mxCell>
        <mxCell id="jcvrlkCG0VKkITgSI-su-52" value="" style="endArrow=none;html=1;rounded=0;exitX=0.5;exitY=0;exitDx=0;exitDy=0;entryX=0;entryY=1;entryDx=0;entryDy=0;" parent="1" source="jcvrlkCG0VKkITgSI-su-51" target="jcvrlkCG0VKkITgSI-su-48" edge="1">
          <mxGeometry width="50" height="50" relative="1" as="geometry">
            <mxPoint x="147" y="520" as="sourcePoint" />
            <mxPoint x="187" y="484" as="targetPoint" />
          </mxGeometry>
        </mxCell>
        <mxCell id="jcvrlkCG0VKkITgSI-su-53" value="" style="endArrow=none;html=1;rounded=0;exitX=0.5;exitY=0;exitDx=0;exitDy=0;entryX=0.5;entryY=1;entryDx=0;entryDy=0;" parent="1" source="jcvrlkCG0VKkITgSI-su-49" target="jcvrlkCG0VKkITgSI-su-48" edge="1">
          <mxGeometry width="50" height="50" relative="1" as="geometry">
            <mxPoint x="147" y="530" as="sourcePoint" />
            <mxPoint x="197" y="510" as="targetPoint" />
          </mxGeometry>
        </mxCell>
        <mxCell id="jcvrlkCG0VKkITgSI-su-54" value="" style="endArrow=none;html=1;rounded=0;exitX=0.5;exitY=0;exitDx=0;exitDy=0;entryX=1;entryY=1;entryDx=0;entryDy=0;" parent="1" source="jcvrlkCG0VKkITgSI-su-50" target="jcvrlkCG0VKkITgSI-su-48" edge="1">
          <mxGeometry width="50" height="50" relative="1" as="geometry">
            <mxPoint x="247" y="570" as="sourcePoint" />
            <mxPoint x="247" y="510" as="targetPoint" />
          </mxGeometry>
        </mxCell>
        <mxCell id="jcvrlkCG0VKkITgSI-su-55" value="Controls" style="shape=rhombus;perimeter=rhombusPerimeter;whiteSpace=wrap;html=1;align=center;" parent="1" vertex="1">
          <mxGeometry x="177" y="320" width="120" height="60" as="geometry" />
        </mxCell>
        <mxCell id="jcvrlkCG0VKkITgSI-su-57" value="" style="endArrow=none;html=1;rounded=0;exitX=0.5;exitY=1;exitDx=0;exitDy=0;entryX=0.5;entryY=0;entryDx=0;entryDy=0;" parent="1" source="jcvrlkCG0VKkITgSI-su-55" target="jcvrlkCG0VKkITgSI-su-48" edge="1">
          <mxGeometry relative="1" as="geometry">
            <mxPoint x="330" y="470" as="sourcePoint" />
            <mxPoint x="490" y="470" as="targetPoint" />
          </mxGeometry>
        </mxCell>
        <mxCell id="jcvrlkCG0VKkITgSI-su-58" value="" style="endArrow=none;html=1;rounded=0;exitX=0.75;exitY=1;exitDx=0;exitDy=0;entryX=0;entryY=0.5;entryDx=0;entryDy=0;" parent="1" source="jcvrlkCG0VKkITgSI-su-2" target="jcvrlkCG0VKkITgSI-su-55" edge="1">
          <mxGeometry relative="1" as="geometry">
            <mxPoint x="150" y="240" as="sourcePoint" />
            <mxPoint x="280" y="365" as="targetPoint" />
          </mxGeometry>
        </mxCell>
        <mxCell id="jcvrlkCG0VKkITgSI-su-59" value="M" style="text;strokeColor=none;fillColor=none;spacingLeft=4;spacingRight=4;overflow=hidden;rotatable=0;points=[[0,0.5],[1,0.5]];portConstraint=eastwest;fontSize=12;whiteSpace=wrap;html=1;fontStyle=1" parent="1" vertex="1">
          <mxGeometry x="150" y="210" width="40" height="30" as="geometry" />
        </mxCell>
        <mxCell id="jcvrlkCG0VKkITgSI-su-60" value="M" style="text;strokeColor=none;fillColor=none;spacingLeft=4;spacingRight=4;overflow=hidden;rotatable=0;points=[[0,0.5],[1,0.5]];portConstraint=eastwest;fontSize=12;whiteSpace=wrap;html=1;fontStyle=1" parent="1" vertex="1">
          <mxGeometry x="210" y="430" width="40" height="30" as="geometry" />
        </mxCell>
        <mxCell id="jcvrlkCG0VKkITgSI-su-61" value="&lt;b&gt;Salary&lt;/b&gt;" style="ellipse;whiteSpace=wrap;html=1;align=center;" parent="1" vertex="1">
          <mxGeometry x="630" y="20" width="100" height="40" as="geometry" />
        </mxCell>
        <mxCell id="jcvrlkCG0VKkITgSI-su-62" value="" style="endArrow=none;html=1;rounded=0;exitX=0.331;exitY=1.005;exitDx=0;exitDy=0;entryX=0.643;entryY=0.012;entryDx=0;entryDy=0;entryPerimeter=0;exitPerimeter=0;" parent="1" source="jcvrlkCG0VKkITgSI-su-61" target="jcvrlkCG0VKkITgSI-su-3" edge="1">
          <mxGeometry width="50" height="50" relative="1" as="geometry">
            <mxPoint x="590" y="105" as="sourcePoint" />
            <mxPoint x="610" y="155" as="targetPoint" />
          </mxGeometry>
        </mxCell>
        <mxCell id="jcvrlkCG0VKkITgSI-su-63" value="Start_Daye" style="ellipse;whiteSpace=wrap;html=1;align=center;" parent="1" vertex="1">
          <mxGeometry x="240" y="110" width="100" height="30" as="geometry" />
        </mxCell>
        <mxCell id="jcvrlkCG0VKkITgSI-su-65" value="" style="endArrow=none;html=1;rounded=0;exitX=0.5;exitY=1;exitDx=0;exitDy=0;entryX=0;entryY=0;entryDx=0;entryDy=0;" parent="1" source="jcvrlkCG0VKkITgSI-su-63" target="jcvrlkCG0VKkITgSI-su-10" edge="1">
          <mxGeometry relative="1" as="geometry">
            <mxPoint x="300" y="150" as="sourcePoint" />
            <mxPoint x="460" y="150" as="targetPoint" />
          </mxGeometry>
        </mxCell>
        <mxCell id="jcvrlkCG0VKkITgSI-su-66" value="Work" style="shape=rhombus;perimeter=rhombusPerimeter;whiteSpace=wrap;html=1;align=center;" parent="1" vertex="1">
          <mxGeometry x="520" y="450" width="115" height="60" as="geometry" />
        </mxCell>
        <mxCell id="jcvrlkCG0VKkITgSI-su-67" value="" style="endArrow=none;html=1;rounded=0;entryX=0.5;entryY=1;entryDx=0;entryDy=0;exitX=0.5;exitY=0;exitDx=0;exitDy=0;" parent="1" source="jcvrlkCG0VKkITgSI-su-66" target="jcvrlkCG0VKkITgSI-su-3" edge="1">
          <mxGeometry relative="1" as="geometry">
            <mxPoint x="410" y="320" as="sourcePoint" />
            <mxPoint x="570" y="320" as="targetPoint" />
          </mxGeometry>
        </mxCell>
        <mxCell id="jcvrlkCG0VKkITgSI-su-68" value="" style="endArrow=none;html=1;rounded=0;exitX=1;exitY=0.5;exitDx=0;exitDy=0;entryX=0;entryY=0.5;entryDx=0;entryDy=0;" parent="1" source="jcvrlkCG0VKkITgSI-su-48" target="jcvrlkCG0VKkITgSI-su-66" edge="1">
          <mxGeometry relative="1" as="geometry">
            <mxPoint x="320" y="480" as="sourcePoint" />
            <mxPoint x="480" y="480" as="targetPoint" />
          </mxGeometry>
        </mxCell>
        <mxCell id="jcvrlkCG0VKkITgSI-su-69" value="M" style="text;strokeColor=none;fillColor=none;spacingLeft=4;spacingRight=4;overflow=hidden;rotatable=0;points=[[0,0.5],[1,0.5]];portConstraint=eastwest;fontSize=12;whiteSpace=wrap;html=1;fontStyle=1" parent="1" vertex="1">
          <mxGeometry x="297" y="450" width="40" height="30" as="geometry" />
        </mxCell>
        <mxCell id="jcvrlkCG0VKkITgSI-su-70" value="M" style="text;strokeColor=none;fillColor=none;spacingLeft=4;spacingRight=4;overflow=hidden;rotatable=0;points=[[0,0.5],[1,0.5]];portConstraint=eastwest;fontSize=12;whiteSpace=wrap;html=1;fontStyle=1" parent="1" vertex="1">
          <mxGeometry x="560" y="210" width="40" height="30" as="geometry" />
        </mxCell>
        <mxCell id="jcvrlkCG0VKkITgSI-su-71" value="Hours_per_Week" style="ellipse;whiteSpace=wrap;html=1;align=center;" parent="1" vertex="1">
          <mxGeometry x="585" y="530" width="105" height="30" as="geometry" />
        </mxCell>
        <mxCell id="jcvrlkCG0VKkITgSI-su-74" value="" style="endArrow=none;html=1;rounded=0;exitX=1;exitY=1;exitDx=0;exitDy=0;entryX=0.5;entryY=0;entryDx=0;entryDy=0;" parent="1" source="jcvrlkCG0VKkITgSI-su-66" target="jcvrlkCG0VKkITgSI-su-71" edge="1">
          <mxGeometry relative="1" as="geometry">
            <mxPoint x="600" y="610" as="sourcePoint" />
            <mxPoint x="760" y="610" as="targetPoint" />
          </mxGeometry>
        </mxCell>
        <mxCell id="Aweqttg76wSioMnTIn_R-2" value="&lt;b style=&quot;border-color: var(--border-color);&quot;&gt;Birthday&lt;/b&gt;" style="ellipse;whiteSpace=wrap;html=1;align=center;dashed=1;" vertex="1" parent="1">
          <mxGeometry x="445" y="100" width="100" height="40" as="geometry" />
        </mxCell>
        <mxCell id="Aweqttg76wSioMnTIn_R-3" value="&lt;b style=&quot;border-color: var(--border-color);&quot;&gt;Birthday&lt;/b&gt;" style="ellipse;whiteSpace=wrap;html=1;align=center;dashed=1;" vertex="1" parent="1">
          <mxGeometry x="1200" y="150" width="100" height="40" as="geometry" />
        </mxCell>
      </root>
    </mxGraphModel>
  </diagram>
</mxfile>
